<svg width="1300" height="452.031" xmlns="http://www.w3.org/2000/svg" version="1.0">
 <g>
  <title>Layer 1</title>
  <path id="svg_1" fill-rule="evenodd" fill="#f90" d="m551.66488,332.23942c-58.111,42.833 -142.34,65.686 -214.86,65.686c-101.685,0 -193.227,-37.61 -262.483,-100.161c-5.44,-4.92 -0.565,-11.623 5.964,-7.792c74.74,43.486 167.153,69.647 262.613,69.647c64.38,0 135.202,-13.32 200.322,-40.961c9.837,-4.179 18.064,6.442 8.444,13.581"/>
  <path transform="rotate(-111.26 88.7743 295.519)" id="svg_2" fill-rule="evenodd" fill="#f90" d="m111.68233,272.74127c-7.4,-9.49 -49.102,-4.484 -67.82,-2.264c-5.702,0.697 -6.572,-4.266 -1.436,-7.835c33.213,-23.375 87.712,-16.628 94.067,-8.793c6.355,7.879 -1.654,62.508 -32.865,88.582c-4.788,4.005 -9.359,1.872 -7.226,-3.439c7.009,-17.498 22.723,-56.718 15.28,-66.251"/>
  <polyline stroke-linecap="round" fill="none" id="svg_4" points="12.14404296875,231.6991844177246 12.14404296875,231.6991844177246 "/>
  <path stroke="null" opacity="NaN" d="m91,74.9845" id="svg_6"/>
  <text font-style="normal" font-weight="bold" stroke-width="0" stroke-dasharray="2,2" transform="matrix(12.2123 0 0 12.2123 -6737.53 -1641.71)" stroke="null" xml:space="preserve" text-anchor="start" font-family="sans-serif" font-size="24" id="svg_8" y="151.85881" x="551.80671" fill="#000000">amasoon</text>
 </g>

</svg>